<svg xmlns="http://www.w3.org/2000/svg" xmlns:xlink="http://www.w3.org/1999/xlink" version="1.1" width="487.26664pt" height="358.6333pt" viewBox="0 0 487.26664 358.6333">
<defs>
<path id="font_1_2" d="M.45999146 .31976319C.45999146 .39982606 .45498658 .47988893 .41999818 .5539398 .37399293 .65000918 .2919922 .6660156 .25 .6660156 .18998719 .6660156 .116989139 .64001467 .07598877 .54693606 .04399109 .47789 .038986207 .39982606 .038986207 .31976319 .038986207 .24472046 .042999269 .15464783 .083999637 .07859802 .1269989-.0024719239 .19999695-.022460938 .24899292-.022460938 .30299378-.022460938 .3789978-.0014648438 .4229889 .09359741 .45498658 .16265869 .45999146 .2407074 .45999146 .31976319M.24899292-.00047302247C.20999146-.00047302247 .15098572 .024551392 .1329956 .12062073 .12199402 .18066406 .12199402 .2727356 .12199402 .3317871 .12199402 .39582826 .12199402 .46188355 .12998963 .5159149 .14898682 .63500979 .22399903 .64401248 .24899292 .64401248 .28199769 .64401248 .34799195 .6259918 .36698915 .52693179 .3769989 .47088624 .3769989 .39482118 .3769989 .3317871 .3769989 .25672914 .3769989 .18867493 .3659973 .12461853 .35099793 .029556275 .2939911-.00047302247 .24899292-.00047302247Z"/>
<path id="font_2_1" d="M.19198609 .052993776C.19198609 .08198547 .16799927 .10598755 .13899231 .10598755 .10998535 .10598755 .085998538 .08198547 .085998538 .052993776 .085998538 .023986817 .10998535 0 .13899231 0 .16799927 0 .19198609 .023986817 .19198609 .052993776Z"/>
<path id="font_1_3" d="M.2939911 .64004519C.2939911 .66400149 .2939911 .6660156 .2709961 .6660156 .20899964 .60227969 .12098694 .60227969 .08898926 .60227969V.57128909C.10899353 .57128909 .16799927 .57128909 .21998596 .5972748V.07902527C.21998596 .042999269 .21699524 .0309906 .1269989 .0309906H.09498596V0C.12998963 .0029907227 .21699524 .0029907227 .25698854 .0029907227 .29699708 .0029907227 .38398744 .0029907227 .4189911 0V.0309906H.3869934C.29699708 .0309906 .2939911 .041992189 .2939911 .07902527V.64004519Z"/>
<path id="font_1_4" d="M.1269989 .07699585 .23298645 .18003845C.3889923 .31811524 .44898988 .3721466 .44898988 .47216798 .44898988 .5860901 .35899354 .6660156 .23699951 .6660156 .12399292 .6660156 .049987794 .57411196 .049987794 .48516847 .049987794 .4291687 .099990848 .4291687 .102996829 .4291687 .11999512 .4291687 .15499878 .44117738 .15499878 .48217774 .15499878 .5081787 .13699341 .5341797 .101989749 .5341797 .09399414 .5341797 .09199524 .5341797 .08898926 .5331726 .11199951 .59806826 .1659851 .63500979 .22399903 .63500979 .31498719 .63500979 .35798646 .5541382 .35798646 .47216798 .35798646 .39215089 .30799867 .31311036 .25299073 .25108338L.06098938 .036987306C.049987794 .025985718 .049987794 .023986817 .049987794 0H.42099L.44898988 .17404175H.42399598C.4189911 .14402771 .4119873 .1000061 .4019928 .084991458 .394989 .07699585 .32899476 .07699585 .30699159 .07699585H.1269989Z"/>
<path id="font_1_5" d="M.2899933 .35191346C.37199403 .37893678 .42999269 .4490509 .42999269 .52809146 .42999269 .6100464 .34199525 .6660156 .24598694 .6660156 .14498902 .6660156 .068984989 .60606387 .068984989 .53009036 .068984989 .49710084 .09098816 .47808839 .11999512 .47808839 .15098572 .47808839 .17098999 .50009158 .17098999 .5290985 .17098999 .57910159 .12399292 .57910159 .10899353 .57910159 .13999939 .62802127 .20599365 .64100649 .24198914 .64100649 .2829895 .64100649 .33799745 .6190338 .33799745 .5290985 .33799745 .51708987 .33599855 .45906068 .30999757 .4149933 .27999879 .36691285 .24598694 .36390687 .22099304 .36291505 .21299744 .36190797 .18899536 .35990907 .18199158 .35990907 .17399597 .35890199 .16699219 .35791017 .16699219 .3479004 .16699219 .33691407 .17399597 .33691407 .19099427 .33691407H.23498535C.31698609 .33691407 .35398866 .2686615 .35398866 .17037964 .35398866 .034469606 .2849884 .0055389406 .24099732 .0055389406 .19799805 .0055389406 .12298584 .022491456 .08799744 .08137512 .12298584 .07637024 .1539917 .09837341 .1539917 .1363678 .1539917 .17237854 .1269989 .19238281 .09799194 .19238281 .07398987 .19238281 .041992189 .17837525 .041992189 .1343689 .041992189 .043441774 .1349945-.022460938 .24398804-.022460938 .3659973-.022460938 .45700074 .06838989 .45700074 .17037964 .45700074 .252594 .3939972 .33088685 .2899933 .35191346Z"/>
<path id="font_1_6" d="M.2939911 .16503906V.07800293C.2939911 .041992189 .2919922 .0309906 .21798706 .0309906H.19699097V0C.23799134 .0029907227 .2899933 .0029907227 .33198548 .0029907227 .37399293 .0029907227 .4269867 .0029907227 .46798707 0V.0309906H.44699098C.37298585 .0309906 .37098695 .041992189 .37098695 .07800293V.16503906H.47099305V.19602967H.37098695V.65075686C.37098695 .67074587 .37098695 .6767578 .35499574 .6767578 .34599305 .6767578 .34298707 .6767578 .33499146 .66474917L.027999878 .19602967V.16503906H.2939911M.2999878 .19602967H.055999757L.2999878 .5688019V.19602967Z"/>
<path id="font_1_7" d="M.44898988 .20022583C.44898988 .3193512 .36698915 .41944886 .25898744 .41944886 .21099854 .41944886 .16799927 .40345765 .13198853 .36842347V.5637665C.1519928 .5577698 .18499756 .55078127 .21699524 .55078127 .33999635 .55078127 .4099884 .6417694 .4099884 .6547699 .4099884 .6607666 .40699769 .6657715 .3999939 .6657715 .39898683 .6657715 .39698792 .6657715 .3919983 .66278079 .37199403 .6537781 .32299806 .6337738 .2559967 .6337738 .21598816 .6337738 .16999817 .6407776 .12298584 .6617737 .114990238 .66477969 .11299133 .66477969 .11099243 .66477969 .100997928 .66477969 .100997928 .6567688 .100997928 .6407776V.34439088C.100997928 .32637025 .100997928 .31835938 .114990238 .31835938 .12199402 .31835938 .12399292 .32136537 .12799073 .32736207 .13899231 .3433838 .17599488 .39746095 .25698854 .39746095 .30899049 .39746095 .33399964 .35139466 .34199525 .33337403 .35798646 .29632569 .3600006 .25727845 .3600006 .20722962 .3600006 .17222595 .3600006 .11222839 .33599855 .07035828 .31199647 .031463624 .2749939 .0055389406 .22898865 .0055389406 .1559906 .0055389406 .09899902 .058380128 .08198547 .11723328 .084991458 .1162262 .08799744 .115234378 .09899902 .115234378 .13198853 .115234378 .14898682 .14022827 .14898682 .16423035 .14898682 .18823242 .13198853 .21322632 .09899902 .21322632 .084991458 .21322632 .049987794 .20622254 .049987794 .16023255 .049987794 .07434082 .11898804-.022460938 .23098755-.022460938 .34700013-.022460938 .44898988 .073349 .44898988 .20022583Z"/>
<path id="font_1_8" d="M.13198853 .327713V.35173036C.13198853 .6047821 .2559967 .64100649 .30699159 .64100649 .33099366 .64100649 .37298585 .634964 .394989 .6007538 .37998963 .6007538 .33999635 .6007538 .33999635 .5557556 .33999635 .524765 .3639984 .5097656 .38598634 .5097656 .4019928 .5097656 .43199159 .51875308 .43199159 .5577545 .43199159 .6178589 .3880005 .6660156 .30499269 .6660156 .1769867 .6660156 .041992189 .5367584 .041992189 .31570436 .041992189 .048553468 .1579895-.022460938 .25099183-.022460938 .3619995-.022460938 .45700074 .07156372 .45700074 .2036438 .45700074 .33070375 .36799623 .4267578 .25698854 .4267578 .18899536 .4267578 .1519928 .37573243 .13198853 .327713M.25099183 .0055389406C.18798828 .0055389406 .1579895 .06556702 .1519928 .080566409 .13398743 .127594 .13398743 .2076416 .13398743 .22564698 .13398743 .30369569 .1659851 .40374757 .2559967 .40374757 .27198792 .40374757 .31799317 .40374757 .34899903 .34172059 .36698915 .30470277 .36698915 .2536621 .36698915 .20463562 .36698915 .15661621 .36698915 .10658264 .34999085 .0705719 .31999208 .010528564 .27398683 .0055389406 .25099183 .0055389406Z"/>
<path id="font_1_9" d="M.47599793 .609375C.4850006 .6213684 .4850006 .62338259 .4850006 .64437869H.24198914C.11999512 .64437869 .117996219 .65737918 .11399841 .67637637H.08898926L.055999757 .4702301H.08099365C.083999637 .48625184 .09298706 .5493469 .10598755 .56137087 .11299133 .5673828 .19099427 .5673828 .20399475 .5673828H.41099549C.3999939 .5513611 .32099916 .4421997 .29899598 .40914918 .20899964 .27394105 .17599488 .1347351 .17599488 .032577516 .17599488 .022567749 .17599488-.022460938 .22200012-.022460938 .2679901-.022460938 .2679901 .022567749 .2679901 .032577516V.08366394C.2679901 .13873291 .2709961 .19381714 .2789917 .24790955 .2829895 .27093507 .29699708 .35707093 .34098817 .41915895L.47599793 .609375Z"/>
<path id="font_1_10" d="M.16299439 .4569702C.116989139 .486969 .11299133 .52098086 .11299133 .5379791 .11299133 .598999 .17799378 .64100649 .24899292 .64100649 .32199098 .64100649 .38598634 .58898928 .38598634 .51698306 .38598634 .45996095 .34700013 .4119568 .2869873 .37695313L.16299439 .4569702M.30899049 .36193849C.3809967 .3989563 .42999269 .45095826 .42999269 .51698306 .42999269 .6090088 .34098817 .6660156 .25 .6660156 .1499939 .6660156 .068984989 .59199526 .068984989 .49897767 .068984989 .4809723 .070999149 .43595887 .11299133 .38894654 .12399292 .37695313 .16099549 .35194398 .18598938 .33494569 .12799073 .30592347 .041992189 .24984741 .041992189 .15072632 .041992189 .04458618 .14399719-.022460938 .24899292-.022460938 .3619995-.022460938 .45700074 .06060791 .45700074 .16773987 .45700074 .20379639 .44599916 .24885559 .4079895 .2909088 .3889923 .31193543 .37298585 .3219452 .30899049 .36193849M.20899964 .3199463 .33198548 .24183655C.3600006 .2228241 .40699769 .19277954 .40699769 .13169861 .40699769 .05760193 .33198548 .0055389406 .25 .0055389406 .1639862 .0055389406 .09199524 .067611698 .09199524 .15072632 .09199524 .20880127 .12399292 .27288819 .20899964 .3199463Z"/>
<path id="font_1_11" d="M.36698915 .31781007V.28579713C.36698915 .05178833 .2630005 .0055389406 .20498657 .0055389406 .18798828 .0055389406 .13398743 .007537842 .10699463 .041778566 .15098572 .041778566 .15899658 .07078552 .15899658 .08778381 .15899658 .118774417 .1349945 .13378906 .11299133 .13378906 .09700012 .13378906 .066986087 .12478638 .066986087 .08578491 .066986087 .018615723 .12098694-.022460938 .20599365-.022460938 .33499146-.022460938 .45700074 .11378479 .45700074 .32881166 .45700074 .5979767 .34199525 .6660156 .25299073 .6660156 .19799805 .6660156 .14898682 .64801028 .10598755 .60298159 .06498718 .5579529 .041992189 .5159302 .041992189 .44088746 .041992189 .31581117 .12998963 .21777344 .24198914 .21777344 .30299378 .21777344 .34399415 .25978089 .36698915 .31781007M.24299622 .24076844C.22698975 .24076844 .18099976 .24076844 .1499939 .3038025 .13198853 .3408203 .13198853 .39085389 .13198853 .43988038 .13198853 .49391175 .13198853 .54093936 .15299988 .5779724 .17999268 .6279907 .21798706 .64100649 .25299073 .64100649 .29899598 .64100649 .33198548 .60697939 .34899903 .5619507 .36099244 .52993777 .36499024 .4669037 .36499024 .42086793 .36499024 .3378296 .33099366 .24076844 .24299622 .24076844Z"/>
<clipPath id="clip_3">
<path transform="matrix(1.6666666,0,0,-1.6666666,56.2389,312.91047)" d="M0 0H238.63457V167.04419H0Z"/>
</clipPath>
<path id="font_4_121" d="M.45999146 .31976319C.45999146 .39982606 .45498658 .47988893 .41999818 .5539398 .37399293 .65000918 .2919922 .6660156 .25 .6660156 .18998719 .6660156 .116989139 .64001467 .07598877 .54693606 .04399109 .47789 .038986207 .39982606 .038986207 .31976319 .038986207 .24472046 .042999269 .15464783 .083999637 .07859802 .1269989-.0024719239 .19999695-.022460938 .24899292-.022460938 .30299378-.022460938 .3789978-.0014648438 .4229889 .09359741 .45498658 .16265869 .45999146 .2407074 .45999146 .31976319M.3769989 .3317871C.3769989 .25672914 .3769989 .18867493 .3659973 .12461853 .35099793 .029556275 .2939911-.00047302247 .24899292-.00047302247 .20999146-.00047302247 .15098572 .024551392 .1329956 .12062073 .12199402 .18066406 .12199402 .2727356 .12199402 .3317871 .12199402 .39582826 .12199402 .46188355 .12998963 .5159149 .14898682 .63500979 .22399903 .64401248 .24899292 .64401248 .28199769 .64401248 .34799195 .6259918 .36698915 .52693179 .3769989 .47088624 .3769989 .39482118 .3769989 .3317871Z"/>
<path id="font_4_88" d="M.19198609 .052993776C.19198609 .08198547 .16799927 .10598755 .13899231 .10598755 .10998535 .10598755 .085998538 .08198547 .085998538 .052993776 .085998538 .023986817 .10998535 0 .13899231 0 .16799927 0 .19198609 .023986817 .19198609 .052993776Z"/>
<path id="font_4_56" d="M.44898988 .20091248C.44898988 .31991578 .36698915 .41992188 .25898744 .41992188 .21099854 .41992188 .16799927 .4039154 .13198853 .36891175V.5641022C.1519928 .55778506 .18499756 .55078127 .21699524 .55078127 .33999635 .55078127 .4099884 .6418457 .4099884 .65493777 .4099884 .6609802 .40699769 .6660156 .3999939 .6660156 .3999939 .66607668 .39698792 .66607668 .3919983 .66308596 .37199403 .65408328 .32299806 .63378909 .2559967 .63378909 .21598816 .63409426 .16999817 .641098 .12298584 .6621094 .114990238 .6651001 .11099243 .6651001 .11099243 .6651001 .100997928 .66508486 .100997928 .657074 .100997928 .64108279V.3447113C.100997928 .3266449 .100997928 .31861878 .114990238 .31861878 .12199402 .31861878 .12399292 .32164 .12799073 .32765199 .13899231 .34371949 .17599488 .3979187 .25698854 .3979187 .30899049 .3979187 .33399964 .3517456 .34199525 .3336792 .35798646 .2965393 .3600006 .2574005 .3600006 .20721436 .3600006 .17218018 .3600006 .112197879 .33599855 .07032776 .31199647 .031448366 .2749939 .0055389406 .22898865 .0055389406 .1559906 .0055389406 .09899902 .05836487 .08198547 .1171875 .084991458 .11685181 .08799744 .115859989 .09899902 .115859989 .13198853 .115859989 .14898682 .14085388 .14898682 .16485596 .14898682 .18885803 .13198853 .21386719 .09899902 .21386719 .084991458 .21386719 .049987794 .2068634 .049987794 .16085816 .049987794 .07432556 .11898804-.022460938 .23098755-.022460938 .34700013-.022460938 .44898988 .07331848 .44898988 .20019531V.20091248Z"/>
<path id="font_4_107" d="M.44898988 .17396546H.42399598C.4189911 .14398194 .4119873 .099990848 .4019928 .084991458 .394989 .07699585 .32899476 .07699585 .30699159 .07699585H.1269989L.23298645 .17996216C.3889923 .31803895 .44898988 .37210084 .44898988 .47216798 .44898988 .5860901 .35899354 .6660156 .23699951 .6660156 .12399292 .6660156 .049987794 .57411196 .049987794 .48516847 .049987794 .4291687 .099990848 .4291687 .102996829 .4291687 .11999512 .4291687 .15499878 .44117738 .15499878 .48217774 .15499878 .5081787 .13699341 .5341797 .101989749 .5341797 .09399414 .5341797 .09199524 .5341797 .08898926 .5331726 .11199951 .59806826 .1659851 .63500979 .22399903 .63500979 .31498719 .63500979 .35798646 .5541382 .35798646 .47216798 .35798646 .39196778 .30799867 .31297303 .25299073 .25097657L.06098938 .036987306C.049987794 .025985718 .049987794 .023986817 .049987794 0H.42099L.44898988 .17396546Z"/>
<path id="font_4_82" d="M.4189911 0V.0309906H.3869934C.29699708 .0309906 .2939911 .041992189 .2939911 .07902527V.64012148C.2939911 .6640167 .2939911 .6660156 .2709961 .6660156 .20899964 .60227969 .12098694 .60227969 .08898926 .60227969V.57128909C.10899353 .57128909 .16799927 .57128909 .21998596 .5972748V.07902527C.21998596 .042999269 .21699524 .0309906 .1269989 .0309906H.09498596V0C.12998963 .0029907227 .21699524 .0029907227 .25698854 .0029907227 .29699708 .0029907227 .38398744 .0029907227 .4189911 0Z"/>
</defs>
<path transform="matrix(1.6666666,0,0,-1.6666666,56.2389,312.91047)" stroke-width=".3985" stroke-linecap="butt" stroke-miterlimit="10" stroke-linejoin="miter" fill="none" stroke="#cbcbcb" d="M0 0V167.04419M23.86345 0V167.04419M47.72691 0V167.04419M71.59036 0V167.04419M95.45383 0V167.04419M119.31728 0V167.04419M143.18074 0V167.04419M167.04419 0V167.04419M190.90766 0V167.04419M214.77112 0V167.04419M238.63457 0V167.04419"/>
<path transform="matrix(1.6666666,0,0,-1.6666666,56.2389,312.91047)" stroke-width=".3985" stroke-linecap="butt" stroke-miterlimit="10" stroke-linejoin="miter" fill="none" stroke="#cbcbcb" d="M0 0H238.63457M0 23.86345H238.63457M0 47.72691H238.63457M0 71.59036H238.63457M0 95.45383H238.63457M0 119.31728H238.63457M0 143.18074H238.63457M0 167.04419H238.63457"/>
<path transform="matrix(1.6666666,0,0,-1.6666666,56.2389,312.91047)" stroke-width=".19925" stroke-linecap="butt" stroke-miterlimit="10" stroke-linejoin="miter" fill="none" stroke="#929292" d="M0 0V0M23.86345 0V0M47.72691 0V0M71.59036 0V0M95.45383 0V0M119.31728 0V0M143.18074 0V0M167.04419 0V0M190.90766 0V0M214.77112 0V0M238.63457 0V0M0 167.04419V167.04419M23.86345 167.04419V167.04419M47.72691 167.04419V167.04419M71.59036 167.04419V167.04419M95.45383 167.04419V167.04419M119.31728 167.04419V167.04419M143.18074 167.04419V167.04419M167.04419 167.04419V167.04419M190.90766 167.04419V167.04419M214.77112 167.04419V167.04419M238.63457 167.04419V167.04419"/>
<path transform="matrix(1.6666666,0,0,-1.6666666,56.2389,312.91047)" stroke-width=".19925" stroke-linecap="butt" stroke-miterlimit="10" stroke-linejoin="miter" fill="none" stroke="#929292" d="M0 0V0M0 23.86345V23.86345M0 47.72691V47.72691M0 71.59036V71.59036M0 95.45383V95.45383M0 119.31728V119.31728M0 143.18074V143.18074M0 167.04419V167.04419M238.63457 0V0M238.63457 23.86345V23.86345M238.63457 47.72691V47.72691M238.63457 71.59036V71.59036M238.63457 95.45383V95.45383M238.63457 119.31728V119.31728M238.63457 143.18074V143.18074M238.63457 167.04419V167.04419"/>
<path transform="matrix(1.6666666,0,0,-1.6666666,56.2389,312.91047)" stroke-width=".3985" stroke-linecap="butt" stroke-miterlimit="10" stroke-linejoin="miter" fill="none" stroke="#000000" d="M0 0V167.04419H238.63457V0H0Z"/>
<use data-text="0" xlink:href="#font_1_2" transform="matrix(16.604399,0,0,-16.604399,52.087747,329.47755)"/>
<use data-text="0" xlink:href="#font_1_2" transform="matrix(16.604399,0,0,-16.604399,85.40279,329.47755)"/>
<use data-text="." xlink:href="#font_2_1" transform="matrix(16.604399,0,0,-16.604399,93.70502,329.47755)"/>
<use data-text="1" xlink:href="#font_1_3" transform="matrix(16.604399,0,0,-16.604399,98.31737,329.47755)"/>
<use data-text="0" xlink:href="#font_1_2" transform="matrix(16.604399,0,0,-16.604399,125.17523,329.47755)"/>
<use data-text="." xlink:href="#font_2_1" transform="matrix(16.604399,0,0,-16.604399,133.47747,329.47755)"/>
<use data-text="2" xlink:href="#font_1_4" transform="matrix(16.604399,0,0,-16.604399,138.08982,329.47755)"/>
<use data-text="0" xlink:href="#font_1_2" transform="matrix(16.604399,0,0,-16.604399,164.94765,329.47755)"/>
<use data-text="." xlink:href="#font_2_1" transform="matrix(16.604399,0,0,-16.604399,173.24988,329.47755)"/>
<use data-text="3" xlink:href="#font_1_5" transform="matrix(16.604399,0,0,-16.604399,177.86223,329.47755)"/>
<use data-text="0" xlink:href="#font_1_2" transform="matrix(16.604399,0,0,-16.604399,204.72006,329.47755)"/>
<use data-text="." xlink:href="#font_2_1" transform="matrix(16.604399,0,0,-16.604399,213.0223,329.47755)"/>
<use data-text="4" xlink:href="#font_1_6" transform="matrix(16.604399,0,0,-16.604399,217.63465,329.47755)"/>
<use data-text="0" xlink:href="#font_1_2" transform="matrix(16.604399,0,0,-16.604399,244.4925,329.47755)"/>
<use data-text="." xlink:href="#font_2_1" transform="matrix(16.604399,0,0,-16.604399,252.79473,329.47755)"/>
<use data-text="5" xlink:href="#font_1_7" transform="matrix(16.604399,0,0,-16.604399,257.40708,329.47755)"/>
<use data-text="0" xlink:href="#font_1_2" transform="matrix(16.604399,0,0,-16.604399,284.26493,329.47755)"/>
<use data-text="." xlink:href="#font_2_1" transform="matrix(16.604399,0,0,-16.604399,292.56718,329.47755)"/>
<use data-text="6" xlink:href="#font_1_8" transform="matrix(16.604399,0,0,-16.604399,297.1795,329.47755)"/>
<use data-text="0" xlink:href="#font_1_2" transform="matrix(16.604399,0,0,-16.604399,324.03736,329.47755)"/>
<use data-text="." xlink:href="#font_2_1" transform="matrix(16.604399,0,0,-16.604399,332.3396,329.47755)"/>
<use data-text="7" xlink:href="#font_1_9" transform="matrix(16.604399,0,0,-16.604399,336.95195,329.47755)"/>
<use data-text="0" xlink:href="#font_1_2" transform="matrix(16.604399,0,0,-16.604399,363.80979,329.47755)"/>
<use data-text="." xlink:href="#font_2_1" transform="matrix(16.604399,0,0,-16.604399,372.11204,329.47755)"/>
<use data-text="8" xlink:href="#font_1_10" transform="matrix(16.604399,0,0,-16.604399,376.72438,329.47755)"/>
<use data-text="0" xlink:href="#font_1_2" transform="matrix(16.604399,0,0,-16.604399,403.5822,329.47755)"/>
<use data-text="." xlink:href="#font_2_1" transform="matrix(16.604399,0,0,-16.604399,411.88447,329.47755)"/>
<use data-text="9" xlink:href="#font_1_11" transform="matrix(16.604399,0,0,-16.604399,416.4968,329.47755)"/>
<use data-text="1" xlink:href="#font_1_3" transform="matrix(16.604399,0,0,-16.604399,449.812,329.47755)"/>
<use data-text="0" xlink:href="#font_1_2" transform="matrix(16.604399,0,0,-16.604399,42.070245,318.2608)"/>
<use data-text="0" xlink:href="#font_1_2" transform="matrix(16.604399,0,0,-16.604399,29.15548,278.4884)"/>
<use data-text="." xlink:href="#font_2_1" transform="matrix(16.604399,0,0,-16.604399,37.457715,278.4884)"/>
<use data-text="1" xlink:href="#font_1_3" transform="matrix(16.604399,0,0,-16.604399,42.070066,278.4884)"/>
<use data-text="0" xlink:href="#font_1_2" transform="matrix(16.604399,0,0,-16.604399,29.15548,238.71596)"/>
<use data-text="." xlink:href="#font_2_1" transform="matrix(16.604399,0,0,-16.604399,37.457715,238.71596)"/>
<use data-text="2" xlink:href="#font_1_4" transform="matrix(16.604399,0,0,-16.604399,42.070066,238.71596)"/>
<use data-text="0" xlink:href="#font_1_2" transform="matrix(16.604399,0,0,-16.604399,29.15548,198.94356)"/>
<use data-text="." xlink:href="#font_2_1" transform="matrix(16.604399,0,0,-16.604399,37.457715,198.94356)"/>
<use data-text="3" xlink:href="#font_1_5" transform="matrix(16.604399,0,0,-16.604399,42.070066,198.94356)"/>
<use data-text="0" xlink:href="#font_1_2" transform="matrix(16.604399,0,0,-16.604399,29.15548,159.17113)"/>
<use data-text="." xlink:href="#font_2_1" transform="matrix(16.604399,0,0,-16.604399,37.457715,159.17113)"/>
<use data-text="4" xlink:href="#font_1_6" transform="matrix(16.604399,0,0,-16.604399,42.070066,159.17113)"/>
<use data-text="0" xlink:href="#font_1_2" transform="matrix(16.604399,0,0,-16.604399,29.15548,119.398677)"/>
<use data-text="." xlink:href="#font_2_1" transform="matrix(16.604399,0,0,-16.604399,37.457715,119.398677)"/>
<use data-text="5" xlink:href="#font_1_7" transform="matrix(16.604399,0,0,-16.604399,42.070066,119.398677)"/>
<use data-text="0" xlink:href="#font_1_2" transform="matrix(16.604399,0,0,-16.604399,29.15548,79.62626)"/>
<use data-text="." xlink:href="#font_2_1" transform="matrix(16.604399,0,0,-16.604399,37.457715,79.62626)"/>
<use data-text="6" xlink:href="#font_1_8" transform="matrix(16.604399,0,0,-16.604399,42.070066,79.62626)"/>
<use data-text="0" xlink:href="#font_1_2" transform="matrix(16.604399,0,0,-16.604399,29.15548,39.85382)"/>
<use data-text="." xlink:href="#font_2_1" transform="matrix(16.604399,0,0,-16.604399,37.457715,39.85382)"/>
<use data-text="7" xlink:href="#font_1_9" transform="matrix(16.604399,0,0,-16.604399,42.070066,39.85382)"/>
<g clip-path="url(#clip_3)">
<path transform="matrix(1.6666666,0,0,-1.6666666,56.2389,312.91047)" stroke-width=".3985" stroke-linecap="butt" stroke-miterlimit="10" stroke-linejoin="miter" fill="none" stroke="#0000ff" d="M238.63457 26.55284 238.61548 26.41922 238.56774 26.21687 238.49138 25.98918 238.40068 25.7663 238.2957 25.5401 238.16684 25.28667 237.99501 24.99599 237.77547 24.66525 237.49388 24.27724 237.16458 23.86868 236.76845 23.4234 236.29119 22.93564 235.70413 22.39346 234.97869 21.78111 234.13867 21.13396 233.15073 20.4414 231.9337 19.66632 230.43506 18.80487 228.66443 17.88611 226.6217 16.933 224.25444 15.94127 221.30013 14.83398 217.50109 13.58496 213.13883 12.33357 208.20867 11.107 202.14736 9.80928 194.91669 8.49825 186.53586 7.23396 176.56096 5.99498 164.48123 4.79605 150.32068 3.69547 133.32988 2.7004 111.89574 1.805 84.83936 1.0557 48.6862 .44145 0 0"/>
<use data-text="0" xlink:href="#font_4_121" transform="matrix(16.113076,-4.008634,-4.008634,-16.113076,398.98234,289.0398)" fill="#0000ff"/>
<use data-text="." xlink:href="#font_4_88" transform="matrix(16.113076,-4.008634,-4.008634,-16.113076,407.03889,287.0355)" fill="#0000ff"/>
<use data-text="5" xlink:href="#font_4_56" transform="matrix(16.113076,-4.008634,-4.008634,-16.113076,411.5183,285.92109)" fill="#0000ff"/>
<path transform="matrix(1.6666666,0,0,-1.6666666,56.2389,312.91047)" stroke-width=".3985" stroke-linecap="butt" stroke-miterlimit="10" stroke-linejoin="miter" fill="none" stroke="#ff0000" d="M238.63457 57.28062 238.57492 56.83438 238.4317 56.28197 238.25275 55.72118 238.03798 55.17111 237.78743 54.63179 237.52492 54.10321 237.25048 53.58418 236.92833 53.04964 236.55846 52.45662 236.10504 51.79442 235.58003 51.08212 234.97151 50.30296 234.26755 49.47609 233.52779 48.66475 232.68064 47.78418 231.66645 46.79146 230.50905 45.7379 229.14882 44.5793 227.58577 43.33125 225.89148 42.07841 223.9824 40.7528 221.6796 39.25897 219.12618 37.72096 216.40575 36.19371 213.21999 34.5292 209.60469 32.77524 205.65525 30.99979 201.37175 29.2196 196.52748 27.36421 190.95539 25.3907 184.61965 23.3432 177.4725 21.23251 169.28736 19.04898 160.61296 16.95973 150.66191 14.81204 139.01657 12.58557 126.35698 10.45576 112.45654 8.42142 96.40834 6.42163 77.65166 4.48512 58.25069 2.86359 38.99287 1.58212 21.85892 .68965 8.97263 .20877 0 0"/>
<use data-text="0" xlink:href="#font_4_121" transform="matrix(14.715815,-7.688501,-7.688501,-14.715815,404.4493,252.07022)" fill="#ff0000"/>
<use data-text="." xlink:href="#font_4_88" transform="matrix(14.715815,-7.688501,-7.688501,-14.715815,411.80723,248.22595)" fill="#ff0000"/>
<use data-text="2" xlink:href="#font_4_107" transform="matrix(14.715815,-7.688501,-7.688501,-14.715815,415.89823,246.08856)" fill="#ff0000"/>
<path transform="matrix(1.6666666,0,0,-1.6666666,56.2389,312.91047)" stroke-width=".3985" stroke-linecap="butt" stroke-miterlimit="10" stroke-linejoin="miter" fill="none" stroke="#008080" d="M238.63457 87.54308 238.51523 86.67685 238.25275 85.53615 237.89479 84.39787 237.46523 83.28343 236.98798 82.18811 236.48686 81.11426 235.91413 80.03564 235.2698 78.8878 234.45847 77.5992 233.55164 76.21269 232.54936 74.80237 231.3801 73.28944 229.97212 71.58319 228.37326 69.76718 226.67899 67.9631 224.7699 66.05882 222.45514 63.89915 219.73471 61.52951 216.82337 59.16942 213.745 56.83318 210.04616 54.20345 205.72689 51.33743 201.04962 48.44281 196.01442 45.55531 190.23947 42.48648 183.24745 39.02866 175.37256 35.45631 166.92487 31.9651 157.5704 28.42851 146.9273 24.75833 134.82852 21.0022 121.82295 17.41077 107.81506 13.97679 91.58795 10.4999 73.49945 7.23302 55.02911 4.47197 38.99287 2.53427 26.4407 1.3435 17.08623 .65384 10.97719 .30069 6.99196 .12645 4.12834 .03818 2.41017 .00475 1.19316-.00475 0 0"/>
<use data-text="0" xlink:href="#font_4_121" transform="matrix(12.898297,-10.455956,-10.455956,-12.898297,409.9303,212.4995)" fill="#008080"/>
<use data-text="." xlink:href="#font_4_88" transform="matrix(12.898297,-10.455956,-10.455956,-12.898297,416.37947,207.27152)" fill="#008080"/>
<use data-text="1" xlink:href="#font_4_82" transform="matrix(12.898297,-10.455956,-10.455956,-12.898297,419.96519,204.36476)" fill="#008080"/>
<path transform="matrix(1.6666666,0,0,-1.6666666,56.2389,312.91047)" stroke-width=".3985" stroke-linecap="butt" stroke-miterlimit="10" stroke-linejoin="miter" fill="none" stroke="#bf8040" d="M238.63457 120.70135 238.39592 118.90683 237.82321 116.5873 237.1073 114.30594 236.24823 112.0628 235.29369 109.86732 234.24369 107.71008 233.05052 105.53851 231.76187 103.26193 230.13918 100.69423 228.32553 98.0263 226.22557 95.19131 223.79149 92.08907 220.97562 88.71953 217.68244 85.1114 213.81658 81.19778 209.47342 77.07896 204.74846 72.9649 199.35529 68.55493 193.24625 63.92064 186.7077 59.33409 179.73957 54.80003 171.8169 50.013 162.65332 44.90622 152.43976 39.66104 141.08074 34.3777 128.38539 29.00365 114.78323 23.83002 100.32193 18.93803 84.81068 14.33714 68.05858 10.03218 52.21324 6.5672 39.08833 4.157 28.39749 2.53905 19.56801 1.43658 12.45671 .72067 7.92267 .3627 4.8681 .17659 2.38634 .06203 0 0"/>
<use data-text="0" xlink:href="#font_4_121" transform="matrix(10.647406,-12.740389,-12.740389,-10.647406,412.3854,169.86101)" fill="#bf8040"/>
<use data-text="." xlink:href="#font_4_88" transform="matrix(10.647406,-12.740389,-12.740389,-10.647406,417.7091,163.49082)" fill="#bf8040"/>
<use data-text="0" xlink:href="#font_4_121" transform="matrix(10.647406,-12.740389,-12.740389,-10.647406,420.66908,159.94899)" fill="#bf8040"/>
<use data-text="5" xlink:href="#font_4_56" transform="matrix(10.647406,-12.740389,-12.740389,-10.647406,425.9928,153.57878)" fill="#bf8040"/>
<path transform="matrix(1.6666666,0,0,-1.6666666,56.2389,312.91047)" stroke-width=".3985" stroke-linecap="butt" stroke-miterlimit="10" stroke-linejoin="miter" fill="none" stroke="#00aeef" d="M238.63457 160.1596 238.39592 158.0954 237.91864 155.75679 237.44139 153.44203 236.72548 151.00795 235.89028 148.33524 234.81639 145.34038 233.38462 141.74892 231.47553 137.5609 229.08919 132.82399 226.10625 127.50243 222.4074 121.63202 218.11197 115.30823 213.33928 109.00824 207.7314 102.26682 200.93029 94.70212 193.41332 87.18513 184.94179 79.45335 174.91915 71.04152 163.584 62.4387 150.69771 53.57344 136.85694 44.99452 121.34569 36.5111 103.92535 28.0873 85.78911 20.48679 68.84607 14.35385 53.45412 9.65274 39.61334 6.04938 28.39749 3.6511 19.92598 2.13577 13.24422 1.15736 8.3522 .58463 4.892 .27443 2.38634 .10736 0 0"/>
<use data-text="0" xlink:href="#font_4_121" transform="matrix(8.851308,-14.047653,-14.047653,-8.851308,417.558,113.356288)" fill="#00aeef"/>
<use data-text="." xlink:href="#font_4_88" transform="matrix(8.851308,-14.047653,-14.047653,-8.851308,421.98365,106.33245)" fill="#00aeef"/>
<use data-text="0" xlink:href="#font_4_121" transform="matrix(8.851308,-14.047653,-14.047653,-8.851308,424.44435,102.42721)" fill="#00aeef"/>
<use data-text="2" xlink:href="#font_4_107" transform="matrix(8.851308,-14.047653,-14.047653,-8.851308,428.87,95.40338)" fill="#00aeef"/>
</g>
</svg>
