<svg xmlns="http://www.w3.org/2000/svg" xmlns:xlink="http://www.w3.org/1999/xlink" version="1.1" width="506.1667pt" height="318.86668pt" viewBox="0 0 506.1667 318.86668">
<defs>
<path id="font_1_2" d="M.45999146 .31976319C.45999146 .39982606 .45498658 .47988893 .41999818 .5539398 .37399293 .65000918 .2919922 .6660156 .25 .6660156 .18998719 .6660156 .116989139 .64001467 .07598877 .54693606 .04399109 .47789 .038986207 .39982606 .038986207 .31976319 .038986207 .24472046 .042999269 .15464783 .083999637 .07859802 .1269989-.0024719239 .19999695-.022460938 .24899292-.022460938 .30299378-.022460938 .3789978-.0014648438 .4229889 .09359741 .45498658 .16265869 .45999146 .2407074 .45999146 .31976319M.24899292-.00047302247C.20999146-.00047302247 .15098572 .024551392 .1329956 .12062073 .12199402 .18066406 .12199402 .2727356 .12199402 .3317871 .12199402 .39582826 .12199402 .46188355 .12998963 .5159149 .14898682 .63500979 .22399903 .64401248 .24899292 .64401248 .28199769 .64401248 .34799195 .6259918 .36698915 .52693179 .3769989 .47088624 .3769989 .39482118 .3769989 .3317871 .3769989 .25672914 .3769989 .18867493 .3659973 .12461853 .35099793 .029556275 .2939911-.00047302247 .24899292-.00047302247Z"/>
<path id="font_2_1" d="M.19198609 .052993776C.19198609 .08198547 .16799927 .10598755 .13899231 .10598755 .10998535 .10598755 .085998538 .08198547 .085998538 .052993776 .085998538 .023986817 .10998535 0 .13899231 0 .16799927 0 .19198609 .023986817 .19198609 .052993776Z"/>
<path id="font_1_3" d="M.2939911 .64004519C.2939911 .66400149 .2939911 .6660156 .2709961 .6660156 .20899964 .60227969 .12098694 .60227969 .08898926 .60227969V.57128909C.10899353 .57128909 .16799927 .57128909 .21998596 .5972748V.07902527C.21998596 .042999269 .21699524 .0309906 .1269989 .0309906H.09498596V0C.12998963 .0029907227 .21699524 .0029907227 .25698854 .0029907227 .29699708 .0029907227 .38398744 .0029907227 .4189911 0V.0309906H.3869934C.29699708 .0309906 .2939911 .041992189 .2939911 .07902527V.64004519Z"/>
<path id="font_1_4" d="M.1269989 .07699585 .23298645 .18003845C.3889923 .31811524 .44898988 .3721466 .44898988 .47216798 .44898988 .5860901 .35899354 .6660156 .23699951 .6660156 .12399292 .6660156 .049987794 .57411196 .049987794 .48516847 .049987794 .4291687 .099990848 .4291687 .102996829 .4291687 .11999512 .4291687 .15499878 .44117738 .15499878 .48217774 .15499878 .5081787 .13699341 .5341797 .101989749 .5341797 .09399414 .5341797 .09199524 .5341797 .08898926 .5331726 .11199951 .59806826 .1659851 .63500979 .22399903 .63500979 .31498719 .63500979 .35798646 .5541382 .35798646 .47216798 .35798646 .39215089 .30799867 .31311036 .25299073 .25108338L.06098938 .036987306C.049987794 .025985718 .049987794 .023986817 .049987794 0H.42099L.44898988 .17404175H.42399598C.4189911 .14402771 .4119873 .1000061 .4019928 .084991458 .394989 .07699585 .32899476 .07699585 .30699159 .07699585H.1269989Z"/>
<path id="font_1_5" d="M.2899933 .35191346C.37199403 .37893678 .42999269 .4490509 .42999269 .52809146 .42999269 .6100464 .34199525 .6660156 .24598694 .6660156 .14498902 .6660156 .068984989 .60606387 .068984989 .53009036 .068984989 .49710084 .09098816 .47808839 .11999512 .47808839 .15098572 .47808839 .17098999 .50009158 .17098999 .5290985 .17098999 .57910159 .12399292 .57910159 .10899353 .57910159 .13999939 .62802127 .20599365 .64100649 .24198914 .64100649 .2829895 .64100649 .33799745 .6190338 .33799745 .5290985 .33799745 .51708987 .33599855 .45906068 .30999757 .4149933 .27999879 .36691285 .24598694 .36390687 .22099304 .36291505 .21299744 .36190797 .18899536 .35990907 .18199158 .35990907 .17399597 .35890199 .16699219 .35791017 .16699219 .3479004 .16699219 .33691407 .17399597 .33691407 .19099427 .33691407H.23498535C.31698609 .33691407 .35398866 .2686615 .35398866 .17037964 .35398866 .034469606 .2849884 .0055389406 .24099732 .0055389406 .19799805 .0055389406 .12298584 .022491456 .08799744 .08137512 .12298584 .07637024 .1539917 .09837341 .1539917 .1363678 .1539917 .17237854 .1269989 .19238281 .09799194 .19238281 .07398987 .19238281 .041992189 .17837525 .041992189 .1343689 .041992189 .043441774 .1349945-.022460938 .24398804-.022460938 .3659973-.022460938 .45700074 .06838989 .45700074 .17037964 .45700074 .252594 .3939972 .33088685 .2899933 .35191346Z"/>
<path id="font_1_6" d="M.2939911 .16503906V.07800293C.2939911 .041992189 .2919922 .0309906 .21798706 .0309906H.19699097V0C.23799134 .0029907227 .2899933 .0029907227 .33198548 .0029907227 .37399293 .0029907227 .4269867 .0029907227 .46798707 0V.0309906H.44699098C.37298585 .0309906 .37098695 .041992189 .37098695 .07800293V.16503906H.47099305V.19602967H.37098695V.65075686C.37098695 .67074587 .37098695 .6767578 .35499574 .6767578 .34599305 .6767578 .34298707 .6767578 .33499146 .66474917L.027999878 .19602967V.16503906H.2939911M.2999878 .19602967H.055999757L.2999878 .5688019V.19602967Z"/>
<path id="font_1_7" d="M.44898988 .20022583C.44898988 .3193512 .36698915 .41944886 .25898744 .41944886 .21099854 .41944886 .16799927 .40345765 .13198853 .36842347V.5637665C.1519928 .5577698 .18499756 .55078127 .21699524 .55078127 .33999635 .55078127 .4099884 .6417694 .4099884 .6547699 .4099884 .6607666 .40699769 .6657715 .3999939 .6657715 .39898683 .6657715 .39698792 .6657715 .3919983 .66278079 .37199403 .6537781 .32299806 .6337738 .2559967 .6337738 .21598816 .6337738 .16999817 .6407776 .12298584 .6617737 .114990238 .66477969 .11299133 .66477969 .11099243 .66477969 .100997928 .66477969 .100997928 .6567688 .100997928 .6407776V.34439088C.100997928 .32637025 .100997928 .31835938 .114990238 .31835938 .12199402 .31835938 .12399292 .32136537 .12799073 .32736207 .13899231 .3433838 .17599488 .39746095 .25698854 .39746095 .30899049 .39746095 .33399964 .35139466 .34199525 .33337403 .35798646 .29632569 .3600006 .25727845 .3600006 .20722962 .3600006 .17222595 .3600006 .11222839 .33599855 .07035828 .31199647 .031463624 .2749939 .0055389406 .22898865 .0055389406 .1559906 .0055389406 .09899902 .058380128 .08198547 .11723328 .084991458 .1162262 .08799744 .115234378 .09899902 .115234378 .13198853 .115234378 .14898682 .14022827 .14898682 .16423035 .14898682 .18823242 .13198853 .21322632 .09899902 .21322632 .084991458 .21322632 .049987794 .20622254 .049987794 .16023255 .049987794 .07434082 .11898804-.022460938 .23098755-.022460938 .34700013-.022460938 .44898988 .073349 .44898988 .20022583Z"/>
<clipPath id="clip_3">
<path transform="matrix(1.6666666,0,0,-1.6666666,64.54104,273.14384)" d="M0 0H238.63304V143.17983H0Z"/>
</clipPath>
<clipPath id="clip_4">
<path transform="matrix(1.6666666,0,0,-1.6666666,64.54153,273.14356)" d="M52.933 52.933H137.97345V137.97345H52.933Z"/>
</clipPath>
<clipPath id="clip_5">
<path transform="matrix(3.3333333,0,0,-3.3333333,-524.0876,464.05055)" d="M0 0H238.63304V143.17983H0Z"/>
</clipPath>
</defs>
<path transform="matrix(1.6666666,0,0,-1.6666666,64.54104,273.14384)" stroke-width=".3985" stroke-linecap="butt" stroke-miterlimit="10" stroke-linejoin="miter" fill="none" stroke="#cbcbcb" d="M0 0V143.17983M47.72661 0V143.17983M95.45322 0V143.17983M143.17983 0V143.17983M190.90644 0V143.17983M238.63304 0V143.17983"/>
<path transform="matrix(1.6666666,0,0,-1.6666666,64.54104,273.14384)" stroke-width=".3985" stroke-linecap="butt" stroke-miterlimit="10" stroke-linejoin="miter" fill="none" stroke="#cbcbcb" d="M0 0H238.63304M0 47.72661H238.63304M0 95.45322H238.63304M0 143.17983H238.63304"/>
<path transform="matrix(1.6666666,0,0,-1.6666666,64.54104,273.14384)" stroke-width=".19925" stroke-linecap="butt" stroke-miterlimit="10" stroke-linejoin="miter" fill="none" stroke="#929292" d="M0 0V0M47.72661 0V0M95.45322 0V0M143.17983 0V0M190.90644 0V0M238.63304 0V0M0 143.17983V143.17983M47.72661 143.17983V143.17983M95.45322 143.17983V143.17983M143.17983 143.17983V143.17983M190.90644 143.17983V143.17983M238.63304 143.17983V143.17983"/>
<path transform="matrix(1.6666666,0,0,-1.6666666,64.54104,273.14384)" stroke-width=".19925" stroke-linecap="butt" stroke-miterlimit="10" stroke-linejoin="miter" fill="none" stroke="#929292" d="M0 0V0M0 47.72661V47.72661M0 95.45322V95.45322M0 143.17983V143.17983M238.63304 0V0M238.63304 47.72661V47.72661M238.63304 95.45322V95.45322M238.63304 143.17983V143.17983"/>
<path transform="matrix(1.6666666,0,0,-1.6666666,64.54104,273.14384)" stroke-width=".3985" stroke-linecap="butt" stroke-miterlimit="10" stroke-linejoin="miter" fill="none" stroke="#000000" d="M0 0V143.17983H238.63304V0H0Z"/>
<use data-text="0" xlink:href="#font_1_2" transform="matrix(16.604399,0,0,-16.604399,60.389894,289.7109)"/>
<use data-text="0" xlink:href="#font_1_2" transform="matrix(16.604399,0,0,-16.604399,129.32569,289.7109)"/>
<use data-text="." xlink:href="#font_2_1" transform="matrix(16.604399,0,0,-16.604399,137.62792,289.7109)"/>
<use data-text="0" xlink:href="#font_1_2" transform="matrix(16.604399,0,0,-16.604399,142.24027,289.7109)"/>
<use data-text="1" xlink:href="#font_1_3" transform="matrix(16.604399,0,0,-16.604399,150.54247,289.7109)"/>
<use data-text="0" xlink:href="#font_1_2" transform="matrix(16.604399,0,0,-16.604399,208.87003,289.7109)"/>
<use data-text="." xlink:href="#font_2_1" transform="matrix(16.604399,0,0,-16.604399,217.17227,289.7109)"/>
<use data-text="0" xlink:href="#font_1_2" transform="matrix(16.604399,0,0,-16.604399,221.78462,289.7109)"/>
<use data-text="2" xlink:href="#font_1_4" transform="matrix(16.604399,0,0,-16.604399,230.08683,289.7109)"/>
<use data-text="0" xlink:href="#font_1_2" transform="matrix(16.604399,0,0,-16.604399,288.41438,289.7109)"/>
<use data-text="." xlink:href="#font_2_1" transform="matrix(16.604399,0,0,-16.604399,296.7166,289.7109)"/>
<use data-text="0" xlink:href="#font_1_2" transform="matrix(16.604399,0,0,-16.604399,301.32896,289.7109)"/>
<use data-text="3" xlink:href="#font_1_5" transform="matrix(16.604399,0,0,-16.604399,309.63117,289.7109)"/>
<use data-text="0" xlink:href="#font_1_2" transform="matrix(16.604399,0,0,-16.604399,367.9587,289.7109)"/>
<use data-text="." xlink:href="#font_2_1" transform="matrix(16.604399,0,0,-16.604399,376.26097,289.7109)"/>
<use data-text="0" xlink:href="#font_1_2" transform="matrix(16.604399,0,0,-16.604399,380.8733,289.7109)"/>
<use data-text="4" xlink:href="#font_1_6" transform="matrix(16.604399,0,0,-16.604399,389.1755,289.7109)"/>
<use data-text="0" xlink:href="#font_1_2" transform="matrix(16.604399,0,0,-16.604399,447.50309,289.7109)"/>
<use data-text="." xlink:href="#font_2_1" transform="matrix(16.604399,0,0,-16.604399,455.80534,289.7109)"/>
<use data-text="0" xlink:href="#font_1_2" transform="matrix(16.604399,0,0,-16.604399,460.41767,289.7109)"/>
<use data-text="5" xlink:href="#font_1_7" transform="matrix(16.604399,0,0,-16.604399,468.71989,289.7109)"/>
<use data-text="0" xlink:href="#font_1_2" transform="matrix(16.604399,0,0,-16.604399,50.372385,278.49415)"/>
<use data-text="0" xlink:href="#font_1_2" transform="matrix(16.604399,0,0,-16.604399,29.15527,198.94985)"/>
<use data-text="." xlink:href="#font_2_1" transform="matrix(16.604399,0,0,-16.604399,37.457506,198.94985)"/>
<use data-text="0" xlink:href="#font_1_2" transform="matrix(16.604399,0,0,-16.604399,42.06985,198.94985)"/>
<use data-text="1" xlink:href="#font_1_3" transform="matrix(16.604399,0,0,-16.604399,50.37205,198.94985)"/>
<use data-text="0" xlink:href="#font_1_2" transform="matrix(16.604399,0,0,-16.604399,29.15527,119.40551)"/>
<use data-text="." xlink:href="#font_2_1" transform="matrix(16.604399,0,0,-16.604399,37.457506,119.40551)"/>
<use data-text="0" xlink:href="#font_1_2" transform="matrix(16.604399,0,0,-16.604399,42.06985,119.40551)"/>
<use data-text="2" xlink:href="#font_1_4" transform="matrix(16.604399,0,0,-16.604399,50.37205,119.40551)"/>
<use data-text="0" xlink:href="#font_1_2" transform="matrix(16.604399,0,0,-16.604399,29.15527,39.86116)"/>
<use data-text="." xlink:href="#font_2_1" transform="matrix(16.604399,0,0,-16.604399,37.457506,39.86116)"/>
<use data-text="0" xlink:href="#font_1_2" transform="matrix(16.604399,0,0,-16.604399,42.06985,39.86116)"/>
<use data-text="3" xlink:href="#font_1_5" transform="matrix(16.604399,0,0,-16.604399,50.37205,39.86116)"/>
<g clip-path="url(#clip_3)">
<path transform="matrix(1.6666666,0,0,-1.6666666,64.54104,273.14384)" stroke-width=".3985" stroke-linecap="butt" stroke-miterlimit="10" stroke-linejoin="miter" fill="none" stroke="#0000ff" d="M238.63304 120.70058 238.39441 118.90607 237.82169 116.58655 237.10579 114.30522 236.24672 112.06207 235.29219 109.86664 234.2422 107.7094 233.04903 105.53784 231.76042 103.26129 230.1377 100.69357 228.32408 98.02568 226.22414 95.1907 223.79007 92.08849 220.9742 88.71898 217.68106 85.11086 213.81522 81.19727 209.47208 77.07846 204.74715 72.96443 199.35404 68.55449 193.24504 63.92024 186.70648 59.33371 179.7384 54.79968 171.8158 50.0127 162.65229 44.90594 152.43877 39.6608 141.07985 34.37746 128.38459 29.00345 114.78249 23.82988 100.32132 18.9379 84.81017 14.33705 68.05814 10.03214 52.21289 6.56717 39.08807 4.15697 28.39732 2.53905 19.5679 1.43655 12.45663 .72066 7.9226 .36272 4.86809 .17656 2.38632 .06203 0 0"/>
<path transform="matrix(1.6666666,0,0,-1.6666666,64.54104,273.14384)" stroke-width=".3985" stroke-linecap="butt" stroke-miterlimit="10" stroke-linejoin="miter" fill="none" stroke="#ff0000" d="M238.63304 98.80313 237.87514 96.54996 236.94019 94.36409 235.82338 92.26602 234.5739 90.24338 233.21894 88.29039 231.78476 86.39423 230.27896 84.55435 228.6553 82.69684 226.8102 80.71904 224.69162 78.58568 222.23131 76.25327 219.26749 73.61493 215.73287 70.66878 211.61167 67.45868 206.9168 64.04338 201.52465 60.38655 195.04148 56.29735 187.24628 51.75664 178.11045 46.84604 167.51325 41.64761 155.37206 36.223 141.56095 30.64873 125.64172 24.92148 106.91046 19.01732 85.84344 13.27069 64.29489 8.39462 45.96849 5.015 32.74016 2.98189 22.8158 1.74133 15.01553 .94885 9.08351 .46556 5.0086 .20537 2.40224 .07828 0 0"/>
<path transform="matrix(1.6666666,0,0,-1.6666666,64.54104,273.14384)" stroke-width=".3985" stroke-linecap="butt" stroke-miterlimit="10" stroke-linejoin="miter" fill="none" stroke="#008080" d="M238.63304 100.81816 237.8279 98.52776 236.87001 96.29701 235.75753 94.1393 234.51663 92.05269 233.16165 90.03384 231.67499 88.01932 229.84467 85.73367 227.55379 83.10442 224.80664 80.20885 221.44191 76.94388 217.38468 73.32524 212.50798 69.32861 206.75739 65.00743 199.92772 60.30113 191.30399 54.88702 180.41947 48.72217 166.8274 41.8504 150.53067 34.58421 131.13744 27.0731 108.31172 19.54485 81.98904 12.40823 55.73656 6.75316 35.13751 3.32254 20.5449 1.5024 11.60284 .65898 6.39177 .28896 2.76398 .09634 0 0"/>
</g>
<path transform="matrix(1.6666666,0,0,-1.6666666,64.54153,273.14356)" d="M245.57517 126.25864H203.05496V83.73843H245.57517ZM203.05496 83.73843" fill="#fff200" fill-opacity=".2"/>
<path transform="matrix(1.6666666,0,0,-1.6666666,64.54153,273.14356)" d="M52.933 52.933H137.97345V137.97345H52.933Z" fill="#fff200" fill-opacity=".2"/>
<g clip-path="url(#clip_4)">
<path transform="matrix(3.3333333,0,0,-3.3333333,-524.0876,464.05055)" stroke-width=".3985" stroke-linecap="butt" stroke-miterlimit="10" stroke-linejoin="miter" fill="none" stroke="#cbcbcb" d="M0 0V143.17983M47.72661 0V143.17983M95.45322 0V143.17983M143.17983 0V143.17983M190.90644 0V143.17983M238.63304 0V143.17983"/>
<path transform="matrix(3.3333333,0,0,-3.3333333,-524.0876,464.05055)" stroke-width=".3985" stroke-linecap="butt" stroke-miterlimit="10" stroke-linejoin="miter" fill="none" stroke="#cbcbcb" d="M0 0H238.63304M0 47.72661H238.63304M0 95.45322H238.63304M0 143.17983H238.63304"/>
<path transform="matrix(3.3333333,0,0,-3.3333333,-524.0876,464.05055)" stroke-width=".19925" stroke-linecap="butt" stroke-miterlimit="10" stroke-linejoin="miter" fill="none" stroke="#929292" d="M0 0V0M47.72661 0V0M95.45322 0V0M143.17983 0V0M190.90644 0V0M238.63304 0V0M0 143.17983V143.17983M47.72661 143.17983V143.17983M95.45322 143.17983V143.17983M143.17983 143.17983V143.17983M190.90644 143.17983V143.17983M238.63304 143.17983V143.17983"/>
<path transform="matrix(3.3333333,0,0,-3.3333333,-524.0876,464.05055)" stroke-width=".19925" stroke-linecap="butt" stroke-miterlimit="10" stroke-linejoin="miter" fill="none" stroke="#929292" d="M0 0V0M0 47.72661V47.72661M0 95.45322V95.45322M0 143.17983V143.17983M238.63304 0V0M238.63304 47.72661V47.72661M238.63304 95.45322V95.45322M238.63304 143.17983V143.17983"/>
<path transform="matrix(3.3333333,0,0,-3.3333333,-524.0876,464.05055)" stroke-width=".3985" stroke-linecap="butt" stroke-miterlimit="10" stroke-linejoin="miter" fill="none" stroke="#000000" d="M0 0V143.17983H238.63304V0H0Z"/>
<g clip-path="url(#clip_5)">
<path transform="matrix(3.3333333,0,0,-3.3333333,-524.0876,464.05055)" stroke-width=".3985" stroke-linecap="butt" stroke-miterlimit="10" stroke-linejoin="miter" fill="none" stroke="#0000ff" d="M238.63304 120.70058 238.39441 118.90607 237.82169 116.58655 237.10579 114.30522 236.24672 112.06207 235.29219 109.86664 234.2422 107.7094 233.04903 105.53784 231.76042 103.26129 230.1377 100.69357 228.32408 98.02568 226.22414 95.1907 223.79007 92.08849 220.9742 88.71898 217.68106 85.11086 213.81522 81.19727 209.47208 77.07846 204.74715 72.96443 199.35404 68.55449 193.24504 63.92024 186.70648 59.33371 179.7384 54.79968 171.8158 50.0127 162.65229 44.90594 152.43877 39.6608 141.07985 34.37746 128.38459 29.00345 114.78249 23.82988 100.32132 18.9379 84.81017 14.33705 68.05814 10.03214 52.21289 6.56717 39.08807 4.15697 28.39732 2.53905 19.5679 1.43655 12.45663 .72066 7.9226 .36272 4.86809 .17656 2.38632 .06203 0 0"/>
<path transform="matrix(3.3333333,0,0,-3.3333333,-524.0876,464.05055)" stroke-width=".3985" stroke-linecap="butt" stroke-miterlimit="10" stroke-linejoin="miter" fill="none" stroke="#ff0000" d="M238.63304 98.80313 237.87514 96.54996 236.94019 94.36409 235.82338 92.26602 234.5739 90.24338 233.21894 88.29039 231.78476 86.39423 230.27896 84.55435 228.6553 82.69684 226.8102 80.71904 224.69162 78.58568 222.23131 76.25327 219.26749 73.61493 215.73287 70.66878 211.61167 67.45868 206.9168 64.04338 201.52465 60.38655 195.04148 56.29735 187.24628 51.75664 178.11045 46.84604 167.51325 41.64761 155.37206 36.223 141.56095 30.64873 125.64172 24.92148 106.91046 19.01732 85.84344 13.27069 64.29489 8.39462 45.96849 5.015 32.74016 2.98189 22.8158 1.74133 15.01553 .94885 9.08351 .46556 5.0086 .20537 2.40224 .07828 0 0"/>
<path transform="matrix(3.3333333,0,0,-3.3333333,-524.0876,464.05055)" stroke-width=".3985" stroke-linecap="butt" stroke-miterlimit="10" stroke-linejoin="miter" fill="none" stroke="#008080" d="M238.63304 100.81816 237.8279 98.52776 236.87001 96.29701 235.75753 94.1393 234.51663 92.05269 233.16165 90.03384 231.67499 88.01932 229.84467 85.73367 227.55379 83.10442 224.80664 80.20885 221.44191 76.94388 217.38468 73.32524 212.50798 69.32861 206.75739 65.00743 199.92772 60.30113 191.30399 54.88702 180.41947 48.72217 166.8274 41.8504 150.53067 34.58421 131.13744 27.0731 108.31172 19.54485 81.98904 12.40823 55.73656 6.75316 35.13751 3.32254 20.5449 1.5024 11.60284 .65898 6.39177 .28896 2.76398 .09634 0 0"/>
</g>
</g>
<path transform="matrix(1.6666666,0,0,-1.6666666,64.54153,273.14356)" stroke-width=".3985" stroke-linecap="butt" stroke-miterlimit="10" stroke-linejoin="miter" fill="none" stroke="#fff200" d="M203.05496 103.42325 137.97344 98.59798"/>
</svg>
