<svg xmlns="http://www.w3.org/2000/svg" xmlns:xlink="http://www.w3.org/1999/xlink" version="1.1" width="444.75pt" height="351.6pt" viewBox="0 0 444.75 351.6">
<defs>
<path id="font_1_2" d="M.1789856 .114868167C.13899231 .047973634 .099990848 .033981325 .055999757 .0309906 .04399109 .02999878 .034988405 .02999878 .034988405 .010986328 .034988405 .004989624 .039993287 0 .04798889 0 .07499695 0 .10598755 .0029907227 .13398743 .0029907227 .16699219 .0029907227 .20199585 0 .23399353 0 .23999024 0 .25299073 0 .25299073 .018997193 .25299073 .02999878 .24398804 .0309906 .23699951 .0309906 .21398926 .032989503 .18998719 .04096985 .18998719 .06593323 .18998719 .077926639 .19599915 .088897708 .20399475 .102890018L.27999879 .23068238H.5309906C.5329895 .2097168 .5469971 .07392883 .5469971 .063949588 .5469971 .033981325 .49499513 .0309906 .47499085 .0309906 .46099855 .0309906 .45098878 .0309906 .45098878 .010986328 .45098878 0 .46299745 0 .46499635 0 .5059967 0 .548996 .0029907227 .58999636 .0029907227 .61499026 .0029907227 .6779938 0 .7029877 0 .70899966 0 .72099307 0 .72099307 .019989014 .72099307 .0309906 .71099856 .0309906 .69799807 .0309906 .6359863 .0309906 .6359863 .037979127 .6329956 .06694031L.57199099 .691803C.56999209 .71180728 .56999209 .7158203 .5529938 .7158203 .5369873 .7158203 .5329895 .7088165 .5269928 .69880679L.1789856 .114868167M.29899598 .26168824 .49598695 .5917816 .5279999 .26168824H.29899598Z"/>
<path id="font_1_3" d="M.1599884 .07795715C.1499939 .038986207 .147995 .0309906 .068984989 .0309906 .051986696 .0309906 .041992189 .0309906 .041992189 .010986328 .041992189 0 .050994874 0 .068984989 0H.42599488C.58399966 0 .70199587 .11791992 .70199587 .21585083 .70199587 .28778077 .6439972 .3457489 .5469971 .35673524 .651001 .37573243 .7559967 .44970704 .7559967 .5446625 .7559967 .6186218 .6899872 .6826172 .56999209 .6826172H.23399353C.21499634 .6826172 .20498657 .6826172 .20498657 .6626129 .20498657 .6516113 .21398926 .6516113 .23298645 .6516113 .23498535 .6516113 .2539978 .6516113 .2709961 .6496124 .2889862 .6476135 .2979889 .64660647 .2979889 .6336212 .2979889 .6296234 .29699708 .62661746 .2939911 .614624L.1599884 .07795715M.31098939 .36573792 .37298585 .6136322C.38198854 .64860537 .38398744 .6516113 .4269867 .6516113H.55599978C.6439972 .6516113 .6649933 .5926361 .6649933 .5486603 .6649933 .46069337 .57899478 .36573792 .45700074 .36573792H.31098939M.2659912 .0309906C.2519989 .0309906 .25 .0309906 .24398804 .03199768 .23399353 .032989503 .23098755 .033996583 .23098755 .04197693 .23098755 .04498291 .23098755 .04698181 .23599243 .064971927L.30499269 .34375H.49398805C.58999636 .34375 .60899356 .2698059 .60899356 .22683716 .60899356 .12791443 .519989 .0309906 .4019928 .0309906H.2659912Z"/>
<path id="font_1_7" d="M.37298585 .37835694C.35499574 .41537477 .32598878 .4423828 .2809906 .4423828 .1639862 .4423828 .039993287 .29533387 .039993287 .14929199 .039993287 .055267335 .09498596-.0107421879 .17298889-.0107421879 .19299317-.0107421879 .24299622-.0067443849 .30299378 .06427002 .31098939 .022247315 .34599305-.0107421879 .3939972-.0107421879 .42900086-.0107421879 .45199586 .012252808 .46798707 .044265748 .4850006 .08027649 .49798585 .14129639 .49798585 .14329529 .49798585 .1532898 .4889984 .1532898 .48599244 .1532898 .47599793 .1532898 .47499085 .14929199 .47200013 .13528443 .45498658 .07026672 .43699647 .011245728 .3959961 .011245728 .36898805 .011245728 .3659973 .037261964 .3659973 .057266237 .3659973 .07926941 .36799623 .08728027 .3789978 .13128662 .3899994 .17329407 .3919983 .18330384 .40098573 .22131348L.43699647 .36135865C.44400025 .38935853 .44400025 .39135743 .44400025 .39537049 .44400025 .41236878 .43199159 .42237855 .4149933 .42237855 .3909912 .42237855 .37599183 .4003601 .37298585 .37835694M.30799867 .119277957C.30299378 .10127258 .30299378 .09927368 .28799439 .08227539 .24398804 .027252198 .20298767 .011245728 .1749878 .011245728 .125 .011245728 .11099243 .06626892 .11099243 .105285648 .11099243 .1552887 .14299011 .27833558 .1659851 .32434083 .19699097 .38336183 .24198914 .42037965 .28199769 .42037965 .34700013 .42037965 .36099244 .3383484 .36099244 .33235169 .36099244 .32633973 .35899354 .32034303 .35798646 .31533814L.30799867 .119277957Z"/>
<path id="font_1_8" d="M.23899842 .68333438C.23899842 .6843262 .23899842 .69433596 .22599793 .69433596 .20298767 .69433596 .12998963 .6863251 .10398865 .6843262 .09599304 .68333438 .084991458 .6823273 .084991458 .6643219 .084991458 .6523285 .09399414 .6523285 .10899353 .6523285 .15699768 .6523285 .15899658 .6453247 .15899658 .6353302 .15899658 .6283264 .1499939 .5943451 .14498902 .573349L.06298828 .24731446C.050994874 .1973114 .04699707 .18130493 .04699707 .14628601 .04699707 .05126953 .099990848-.0107421879 .17399597-.0107421879 .2919922-.0107421879 .4149933 .1382904 .4149933 .28233338 .4149933 .37335206 .3619995 .4423828 .28199769 .4423828 .23599243 .4423828 .19499207 .41337586 .16499329 .38235475L.23899842 .68333438M.14498902 .30534364C.15098572 .3273468 .15098572 .3293457 .1599884 .3403473 .20899964 .405365 .2539978 .42037965 .27999879 .42037965 .31599427 .42037965 .34298707 .3903656 .34298707 .32633973 .34298707 .26733399 .30999757 .15229798 .2919922 .11428833 .25898744 .04725647 .21299744 .011245728 .17399597 .011245728 .13999939 .011245728 .10699463 .038253786 .10699463 .11227417 .10699463 .13128662 .10699463 .15029907 .12298584 .21331787L.14498902 .30534364Z"/>
<path id="font_1_9" d="M.5159912 .68333438C.5159912 .6843262 .5159912 .69433596 .5029907 .69433596 .48799134 .69433596 .3929901 .68533328 .37599183 .68333438 .36799623 .6823273 .3619995 .6773224 .3619995 .6643219 .3619995 .6523285 .37098695 .6523285 .38598634 .6523285 .43399049 .6523285 .43598939 .6453247 .43598939 .6353302L.43299867 .6153412 .37298585 .37835694C.35499574 .41537477 .32598878 .4423828 .2809906 .4423828 .1639862 .4423828 .039993287 .29533387 .039993287 .14929199 .039993287 .055267335 .09498596-.0107421879 .17298889-.0107421879 .19299317-.0107421879 .24299622-.0067443849 .30299378 .06427002 .31098939 .022247315 .34599305-.0107421879 .3939972-.0107421879 .42900086-.0107421879 .45199586 .012252808 .46798707 .044265748 .4850006 .08027649 .49798585 .14129639 .49798585 .14329529 .49798585 .1532898 .4889984 .1532898 .48599244 .1532898 .47599793 .1532898 .47499085 .14929199 .47200013 .13528443 .45498658 .07026672 .43699647 .011245728 .3959961 .011245728 .36898805 .011245728 .3659973 .037261964 .3659973 .057266237 .3659973 .08126831 .36799623 .088272098 .37199403 .105285648L.5159912 .68333438M.30799867 .119277957C.30299378 .10127258 .30299378 .09927368 .28799439 .08227539 .24398804 .027252198 .20298767 .011245728 .1749878 .011245728 .125 .011245728 .11099243 .06626892 .11099243 .105285648 .11099243 .1552887 .14299011 .27833558 .1659851 .32434083 .19699097 .38336183 .24198914 .42037965 .28199769 .42037965 .34700013 .42037965 .36099244 .3383484 .36099244 .33235169 .36099244 .32633973 .35899354 .32034303 .35798646 .31533814L.30799867 .119277957Z"/>
<path id="font_1_5" d="M.15899658 .07795715C.14898682 .038986207 .14698792 .0309906 .067993167 .0309906 .050994874 .0309906 .039993287 .0309906 .039993287 .011993408 .039993287 0 .04899597 0 .067993167 0H.39898683C.6069946 0 .80400088 .21087647 .80400088 .42974855 .80400088 .5706482 .71899417 .6826172 .56900027 .6826172H.23298645C.21398926 .6826172 .20298767 .6826172 .20298767 .66360476 .20298767 .6516113 .21199036 .6516113 .23199463 .6516113 .24499512 .6516113 .2630005 .65060427 .2749939 .6496124 .29100038 .6476135 .29699708 .64460757 .29699708 .6336212 .29699708 .6296234 .29599 .62661746 .29299928 .614624L.15899658 .07795715M.375 .6136322C.38398744 .64860537 .38598634 .6516113 .42900086 .6516113H.5359955C.6339874 .6516113 .71699526 .5986328 .71699526 .46672059 .71699526 .41775514 .69699099 .25386048 .6119995 .1439209 .58299258 .10694885 .5039978 .0309906 .3809967 .0309906H.2679901C.2539978 .0309906 .2519989 .0309906 .24598694 .03199768 .23599243 .032989503 .23298645 .033996583 .23298645 .041992189 .23298645 .04498291 .23298645 .04698181 .23799134 .064971927L.375 .6136322Z"/>
</defs>
<path transform="matrix(1.6666666,0,0,-1.6666666,33.40275,175.80304)" stroke-width=".3985" stroke-linecap="butt" stroke-dasharray="2.98883,1.99255,.3985,1.99255" stroke-miterlimit="10" stroke-linejoin="miter" fill="none" stroke="#000000" d="M-5.66925 0H232.44028"/>
<path transform="matrix(1.6666666,0,0,-1.6666666,33.40275,175.80304)" stroke-width="1.19553" stroke-linecap="butt" stroke-miterlimit="10" stroke-linejoin="miter" fill="none" stroke="#000000" d="M56.69275-56.69275H0V56.69275H56.69275"/>
<path transform="matrix(1.6666666,0,0,-1.6666666,33.40275,175.80304)" stroke-width="1.19553" stroke-linecap="butt" stroke-miterlimit="10" stroke-linejoin="miter" fill="none" stroke="#000000" d="M56.69275 56.69275C88.00368 56.69275 113.3855 66.84547 113.3855 79.36984"/>
<use data-text="A" xlink:href="#font_1_2" transform="matrix(16.604399,0,0,-16.604399,121.66393,74.78459)"/>
<use data-text="B" xlink:href="#font_1_3" transform="matrix(16.604399,0,0,-16.604399,228.90909,49.193185)"/>
<path transform="matrix(1.6666666,0,0,-1.6666666,33.40275,175.80304)" stroke-width="1.19553" stroke-linecap="butt" stroke-miterlimit="10" stroke-linejoin="miter" fill="none" stroke="#000000" d="M56.69275-56.69275C88.00368-56.69275 113.3855-66.84547 113.3855-79.36984"/>
<path transform="matrix(1.6666666,0,0,-1.6666666,33.40275,175.80304)" stroke-width="1.19553" stroke-linecap="butt" stroke-miterlimit="10" stroke-linejoin="miter" fill="none" stroke="#000000" d="M113.3855-90.70839V90.70839H226.77101V-90.70839Z"/>
<path transform="matrix(1.6666666,0,0,-1.6666666,33.40275,175.80304)" stroke-width=".3985" stroke-linecap="butt" stroke-miterlimit="10" stroke-linejoin="miter" fill="none" stroke="#000000" d="M43.0865 79.36984H113.3855"/>
<path transform="matrix(1.6666666,0,0,-1.6666666,33.40275,175.80304)" stroke-width=".3985" stroke-linecap="butt" stroke-miterlimit="10" stroke-linejoin="miter" fill="none" stroke="#000000" d="M56.69275 43.0865V56.69275"/>
<path transform="matrix(1.6666666,0,0,-1.6666666,33.40275,175.80304)" stroke-width=".3985" stroke-linecap="butt" stroke-miterlimit="10" stroke-linejoin="miter" fill="none" stroke="#000000" d="M61.37521 45.35419H108.70303"/>
<path transform="matrix(-1.6666666,0,0,1.6666666,135.86083,100.21272)" d="M3.63458 0 .19925 .66129V0-.66129Z"/>
<path transform="matrix(-1.6666666,0,0,1.6666666,135.86083,100.21272)" stroke-width=".3985" stroke-linecap="butt" stroke-miterlimit="10" stroke-linejoin="miter" fill="none" stroke="#000000" d="M3.63458 0 .19925 .66129V0-.66129Z"/>
<path transform="matrix(1.6666666,0,0,-1.6666666,214.40842,100.21272)" d="M3.63458 0 .19925 .66129V0-.66129Z"/>
<path transform="matrix(1.6666666,0,0,-1.6666666,214.40842,100.21272)" stroke-width=".3985" stroke-linecap="butt" stroke-miterlimit="10" stroke-linejoin="miter" fill="none" stroke="#000000" d="M3.63458 0 .19925 .66129V0-.66129Z"/>
<use data-text="a" xlink:href="#font_1_7" transform="matrix(16.604399,0,0,-16.604399,170.74607,94.34636)"/>
<path transform="matrix(1.6666666,0,0,-1.6666666,33.40275,175.80304)" stroke-width=".3985" stroke-linecap="butt" stroke-miterlimit="10" stroke-linejoin="miter" fill="none" stroke="#000000" d="M45.35419 74.68738V61.37521"/>
<path transform="matrix(0,-1.6666666,-1.6666666,-0,108.99307,51.490148)" d="M3.63458 0 .19925 .66129V0-.66129Z"/>
<path transform="matrix(0,-1.6666666,-1.6666666,-0,108.99307,51.490148)" stroke-width=".3985" stroke-linecap="butt" stroke-miterlimit="10" stroke-linejoin="miter" fill="none" stroke="#000000" d="M3.63458 0 .19925 .66129V0-.66129Z"/>
<path transform="matrix(0,1.6666666,1.6666666,0,108.99307,73.34496)" d="M3.63458 0 .19925 .66129V0-.66129Z"/>
<path transform="matrix(0,1.6666666,1.6666666,0,108.99307,73.34496)" stroke-width=".3985" stroke-linecap="butt" stroke-miterlimit="10" stroke-linejoin="miter" fill="none" stroke="#000000" d="M3.63458 0 .19925 .66129V0-.66129Z"/>
<use data-text="b" xlink:href="#font_1_8" transform="matrix(16.604399,0,0,-16.604399,96.00056,68.183048)"/>
<path transform="matrix(1.6666666,0,0,-1.6666666,33.40275,175.80304)" stroke-width=".3985" stroke-linecap="butt" stroke-miterlimit="10" stroke-linejoin="miter" fill="none" stroke="#000000" d="M22.6771-52.01028V52.01028"/>
<path transform="matrix(0,1.6666666,1.6666666,0,71.197917,262.32078)" d="M3.63458 0 .19925 .66129V0-.66129Z"/>
<path transform="matrix(0,1.6666666,1.6666666,0,71.197917,262.32078)" stroke-width=".3985" stroke-linecap="butt" stroke-miterlimit="10" stroke-linejoin="miter" fill="none" stroke="#000000" d="M3.63458 0 .19925 .66129V0-.66129Z"/>
<path transform="matrix(0,-1.6666666,-1.6666666,0,71.197917,89.28531)" d="M3.63458 0 .19925 .66129V0-.66129Z"/>
<path transform="matrix(0,-1.6666666,-1.6666666,0,71.197917,89.28531)" stroke-width=".3985" stroke-linecap="butt" stroke-miterlimit="10" stroke-linejoin="miter" fill="none" stroke="#000000" d="M3.63458 0 .19925 .66129V0-.66129Z"/>
<use data-text="d" xlink:href="#font_1_9" transform="matrix(16.604399,0,0,-16.604399,56.68905,162.6698)"/>
<path transform="matrix(1.6666666,0,0,-1.6666666,33.40275,175.80304)" stroke-width=".3985" stroke-linecap="butt" stroke-miterlimit="10" stroke-linejoin="miter" fill="none" stroke="#000000" d="M147.40114-86.02592V86.02592"/>
<path transform="matrix(0,1.6666666,1.6666666,0,279.0713,319.01353)" d="M3.63458 0 .19925 .66129V0-.66129Z"/>
<path transform="matrix(0,1.6666666,1.6666666,0,279.0713,319.01353)" stroke-width=".3985" stroke-linecap="butt" stroke-miterlimit="10" stroke-linejoin="miter" fill="none" stroke="#000000" d="M3.63458 0 .19925 .66129V0-.66129Z"/>
<path transform="matrix(0,-1.6666666,-1.6666666,0,279.0713,32.592584)" d="M3.63458 0 .19925 .66129V0-.66129Z"/>
<path transform="matrix(0,-1.6666666,-1.6666666,0,279.0713,32.592584)" stroke-width=".3985" stroke-linecap="butt" stroke-miterlimit="10" stroke-linejoin="miter" fill="none" stroke="#000000" d="M3.63458 0 .19925 .66129V0-.66129Z"/>
<use data-text="D" xlink:href="#font_1_5" transform="matrix(16.604399,0,0,-16.604399,258.99647,151.23831)"/>
</svg>
